<svg width="245" height="68" viewBox="0 0 245 68" fill="none" xmlns="http://www.w3.org/2000/svg">
<path d="M15.408 67.752C12.912 67.752 10.68 67.488 8.712 66.96C6.792 66.432 5.184 65.712 3.888 64.8C2.592 63.888 1.608 62.832 0.935999 61.632C0.311999 60.384 -5.66244e-07 59.088 -5.66244e-07 57.744C-5.66244e-07 56.496 0.239999 55.488 0.72 54.72C1.248 53.904 1.968 53.304 2.88 52.92C3.792 52.488 4.824 52.272 5.976 52.272C6.024 55.776 6.432 58.608 7.2 60.768C7.968 62.928 9.096 64.512 10.584 65.52C12.12 66.528 13.992 67.032 16.2 67.032C19.224 67.032 21.672 66.168 23.544 64.44C25.464 62.712 26.424 60.168 26.424 56.808C26.424 54.6 25.992 52.824 25.128 51.48C24.264 50.088 22.944 48.84 21.168 47.736C19.392 46.632 17.088 45.456 14.256 44.208C12.528 43.44 10.848 42.6 9.216 41.688C7.632 40.776 6.216 39.72 4.968 38.52C3.72 37.32 2.736 35.904 2.016 34.272C1.344 32.592 1.008 30.672 1.008 28.512C1.008 25.584 1.656 23.112 2.952 21.096C4.248 19.08 6.096 17.544 8.496 16.488C10.944 15.432 13.8 14.904 17.064 14.904C19.992 14.904 22.488 15.288 24.552 16.056C26.664 16.824 28.296 17.832 29.448 19.08C30.648 20.328 31.248 21.696 31.248 23.184C31.248 24.672 30.648 25.872 29.448 26.784C28.296 27.648 26.712 28.08 24.696 28.08C24.696 25.296 24.408 22.992 23.832 21.168C23.304 19.344 22.44 17.976 21.24 17.064C20.04 16.152 18.432 15.696 16.416 15.696C14.784 15.696 13.272 16.032 11.88 16.704C10.536 17.376 9.48 18.408 8.712 19.8C7.944 21.144 7.56 22.92 7.56 25.128C7.56 27.336 7.992 29.16 8.856 30.6C9.72 32.04 11.04 33.312 12.816 34.416C14.592 35.472 16.872 36.648 19.656 37.944C22.344 39.096 24.696 40.32 26.712 41.616C28.776 42.864 30.384 44.4 31.536 46.224C32.688 48.048 33.264 50.352 33.264 53.136C33.264 56.112 32.568 58.704 31.176 60.912C29.784 63.072 27.744 64.752 25.056 65.952C22.416 67.152 19.2 67.752 15.408 67.752ZM85.6558 67.752C80.4718 67.752 76.1518 66.648 72.6958 64.44C69.2878 62.232 66.7438 59.136 65.0638 55.152C63.3838 51.168 62.5438 46.512 62.5438 41.184C62.5438 35.856 63.3838 31.224 65.0638 27.288C66.7438 23.352 69.3118 20.304 72.7678 18.144C76.2238 15.936 80.5438 14.832 85.7278 14.832C90.6718 14.832 94.8478 15.936 98.2558 18.144C101.712 20.304 104.328 23.376 106.104 27.36C107.88 31.296 108.768 35.928 108.768 41.256C108.768 46.584 107.856 51.24 106.032 55.224C104.256 59.16 101.64 62.232 98.1838 64.44C94.7758 66.648 90.5998 67.752 85.6558 67.752ZM85.6558 67.032C88.1038 67.032 90.1918 66.552 91.9198 65.592C93.6958 64.584 95.1358 63.048 96.2398 60.984C97.3918 58.872 98.2318 56.184 98.7598 52.92C99.3358 49.656 99.6238 45.768 99.6238 41.256C99.6238 36.744 99.3358 32.88 98.7598 29.664C98.2318 26.4 97.4158 23.736 96.3118 21.672C95.2078 19.56 93.7678 18.024 91.9918 17.064C90.2638 16.056 88.1758 15.552 85.7278 15.552C83.2798 15.552 81.1678 16.056 79.3918 17.064C77.6158 18.024 76.1518 19.56 74.9998 21.672C73.8478 23.736 72.9838 26.4 72.4078 29.664C71.8798 32.88 71.6158 36.744 71.6158 41.256C71.6158 45.768 71.8798 49.656 72.4078 52.92C72.9838 56.184 73.8238 58.872 74.9278 60.984C76.0798 63.048 77.5438 64.584 79.3198 65.592C81.0958 66.552 83.2078 67.032 85.6558 67.032ZM136.913 67.032V66.312H138.425C139.577 66.312 140.537 66.144 141.305 65.808C142.121 65.472 142.721 64.944 143.105 64.224C143.537 63.456 143.753 62.472 143.753 61.272V21.168C143.753 20.016 143.537 19.08 143.105 18.36C142.721 17.64 142.121 17.136 141.305 16.848C140.537 16.512 139.577 16.344 138.425 16.344H136.913V15.624H158.945V16.344H157.433C156.329 16.344 155.369 16.512 154.553 16.848C153.785 17.184 153.185 17.712 152.753 18.432C152.369 19.152 152.177 20.112 152.177 21.312V66.312H164.705C167.345 66.312 169.457 65.952 171.041 65.232C172.673 64.464 173.873 63.192 174.641 61.416C175.409 59.592 175.889 57.168 176.081 54.144L176.297 51.408H177.017L176.513 67.032H136.913ZM204.005 67.032V66.312H205.517C206.669 66.312 207.629 66.144 208.397 65.808C209.213 65.472 209.813 64.944 210.197 64.224C210.629 63.504 210.845 62.544 210.845 61.344V21.168C210.845 20.016 210.629 19.08 210.197 18.36C209.813 17.64 209.213 17.136 208.397 16.848C207.629 16.512 206.669 16.344 205.517 16.344H204.005V15.624H241.229L241.661 28.368H240.941L240.797 25.992C240.605 23.592 240.149 21.696 239.429 20.304C238.757 18.864 237.677 17.856 236.189 17.28C234.701 16.656 232.733 16.344 230.285 16.344H219.269V39.744H237.053V40.464H219.269V66.312H232.229C234.821 66.312 236.885 66.024 238.421 65.448C240.005 64.824 241.157 63.816 241.877 62.424C242.597 60.984 243.053 59.064 243.245 56.664L243.389 54.288H244.109L243.605 67.032H204.005ZM221.645 10.8C222.317 9.744 223.013 8.59199 223.733 7.34399C224.501 6.096 225.221 4.824 225.893 3.528C226.613 2.232 227.213 1.05599 227.693 -6.19888e-06H234.965V0.719993C234.389 1.34399 233.597 2.11199 232.589 3.02399C231.629 3.93599 230.525 4.91999 229.277 5.97599C228.077 6.984 226.877 7.992 225.677 8.99999C224.477 9.96 223.373 10.8 222.365 11.52H221.645V10.8Z" fill="#1C1C19"/>
</svg>
